<?xml version="1.0" encoding="utf-8"?>
<!-- Generator: Adobe Illustrator 27.5.0, SVG Export Plug-In . SVG Version: 6.00 Build 0)  -->
<svg version="1.1" xmlns="http://www.w3.org/2000/svg" xmlns:xlink="http://www.w3.org/1999/xlink" x="0px" y="0px"
	 viewBox="0 0 2200 2200" style="enable-background:new 0 0 2200 2200;" xml:space="preserve">
<g id="background">
	<rect style="fill:#FFFFFF;" width="2200" height="2200"/>
</g>
<g id="Objects">
	<g>
		<g>
			<path style="fill:#C7DFE5;" d="M1641.361,722.167c4.078-15.96,6.249-32.682,6.249-49.912c0-111.026-90.004-201.03-201.03-201.03
				c-28.888,0-56.346,6.105-81.172,17.076c-78.974-98.268-200.14-161.184-336.02-161.184
				c-212.045,0-388.311,153.171-424.201,354.904c-5.317-0.261-10.666-0.399-16.048-0.399c-177.88,0-322.081,144.2-322.081,322.081
				c0,172.328,135.339,313.046,305.526,321.662c26.018,161.995,166.423,285.752,335.753,285.752
				c122.144,0,229.229-64.403,289.202-161.091c42.756,30.642,95.152,48.687,151.768,48.687
				c113.981,0,210.871-73.118,246.364-175.002c11.603,1.354,23.4,2.073,35.367,2.073c166.738,0,301.906-135.168,301.906-301.906
				C1932.943,860.597,1803.316,727.612,1641.361,722.167z"/>
			<path style="fill:#B4CFD6;" d="M1574.19,614.667c0-48.75-18.18-93.25-48.12-127.11c71.49,30.81,121.54,101.91,121.54,184.7
				c0,1.33,0.127,23.574-6.249,49.91c0,0-59.167-1.489-84.125,6.338C1570.97,679.328,1574.19,631.117,1574.19,614.667z"/>
			<path style="fill:#B4CFD6;" d="M1932.94,1023.877c0,166.74-135.17,301.91-301.9,301.91c-11.97,0-23.77-0.72-35.37-2.08
				c-35.49,101.89-132.38,175.01-246.36,175.01c-56.62,0-109.01-18.05-151.77-48.69c-59.97,96.69-167.06,161.09-289.2,161.09
				c-169.33,0-309.74-123.76-335.76-285.75c-166.87-8.45-300.24-143.92-305.36-311.65c34.72,124.87,146.26,217.76,280.51,224.56
				c24.84,154.67,158.9,272.84,320.58,272.84c116.63,0,218.88-61.49,276.14-153.81c40.83,29.25,90.85,46.48,144.91,46.48
				c108.84,0,201.35-69.81,235.24-167.09c11.08,1.29,22.34,1.98,33.77,1.98c159.2,0,288.27-129.07,288.27-288.27
				c0-74.51-28.27-142.42-74.67-193.57C1867.71,807.457,1932.94,908.047,1932.94,1023.877z"/>
		</g>
		<ellipse style="fill:#E2EBED;" cx="1100" cy="1830.351" rx="372.155" ry="42.532"/>
	</g>
</g>
</svg>
